<?xml version="1.0" encoding="UTF-8" standalone="no"?>
<svg
   version="1.1"
   id="svg344"
   sodipodi:docname="crosshair.svg"
   width="21.414213"
   height="21.414213"
   inkscape:version="1.4.2 (ebf0e940d0, 2025-05-08)"
   xmlns:inkscape="http://www.inkscape.org/namespaces/inkscape"
   xmlns:sodipodi="http://sodipodi.sourceforge.net/DTD/sodipodi-0.dtd"
   xmlns="http://www.w3.org/2000/svg"
   xmlns:svg="http://www.w3.org/2000/svg">
  <sodipodi:namedview
     id="namedview344"
     pagecolor="#ffffff"
     bordercolor="#eeeeee"
     borderopacity="1"
     inkscape:showpageshadow="0"
     inkscape:pageopacity="0"
     inkscape:pagecheckerboard="true"
     inkscape:deskcolor="#d1d1d1"
     inkscape:zoom="5.4344172"
     inkscape:cx="3.956266"
     inkscape:cy="35.330375"
     inkscape:window-width="1920"
     inkscape:window-height="1056"
     inkscape:window-x="0"
     inkscape:window-y="0"
     inkscape:window-maximized="1"
     inkscape:current-layer="svg344" />
  <defs
     id="defs1" />
  <path
     stroke="none"
     fill="#333333"
     d="m 18.707107,0.70710678 2,2.00000002 -4,4 -2,-2 4,-4.00000002 M 0.70710678,2.7071068 2.7071068,0.70710678 l 4,4.00000002 -2,2 -4.00000002,-4 M 12.707107,10.707107 q 0,0.85 -0.6,1.4 -0.55,0.6 -1.4,0.6 -0.8500002,0 -1.4500002,-0.6 -0.55,-0.55 -0.55,-1.4 0,-0.8500002 0.55,-1.4500002 0.6,-0.55 1.4500002,-0.55 0.85,0 1.4,0.55 0.6,0.6 0.6,1.4500002 m -10.0000002,10 -2.00000002,-2 4.00000002,-4 2,2 -4,4 m 18.0000002,-2 -2,2 -4,-4 2,-2 4,4"
     id="path296"
     style="fill:#ffffff;fill-opacity:1;stroke:#000000;stroke-opacity:1;stroke-linecap:round;stroke-linejoin:round;paint-order:normal" />
</svg>
