<?xml version="1.0" encoding="UTF-8" standalone="no"?>
<svg
   version="1.1"
   id="svg344"
   sodipodi:docname="soft-lock.svg"
   width="57"
   height="57"
   inkscape:version="1.4.2 (ebf0e940d0, 2025-05-08)"
   xmlns:inkscape="http://www.inkscape.org/namespaces/inkscape"
   xmlns:sodipodi="http://sodipodi.sourceforge.net/DTD/sodipodi-0.dtd"
   xmlns="http://www.w3.org/2000/svg"
   xmlns:svg="http://www.w3.org/2000/svg">
  <sodipodi:namedview
     id="namedview344"
     pagecolor="#505050"
     bordercolor="#eeeeee"
     borderopacity="1"
     inkscape:showpageshadow="0"
     inkscape:pageopacity="0"
     inkscape:pagecheckerboard="0"
     inkscape:deskcolor="#d1d1d1"
     inkscape:zoom="9.489492"
     inkscape:cx="31.982745"
     inkscape:cy="31.192397"
     inkscape:window-width="1920"
     inkscape:window-height="1056"
     inkscape:window-x="0"
     inkscape:window-y="0"
     inkscape:window-maximized="1"
     inkscape:current-layer="svg344" />
  <defs
     id="defs1" />
  <path
     stroke="none"
     fill="#333333"
     d="m 52.5,0.5 q 1.65,0 2.85,1.2 1.15,1.15 1.15,2.8 v 20 h -4 v -20 h -20 v -4 h 20 m -48,0 h 20 v 4 h -20 v 20 h -4 V 4.5 Q 0.5,2.85 1.65,1.7 2.85,0.5 4.5,0.5 m 52,52 q 0,1.65 -1.15,2.8 -1.2,1.2 -2.85,1.2 h -20 v -4 h 20 v -20 h 4 v 20 m -52,4 Q 2.85,56.5 1.65,55.3 0.5,54.15 0.5,52.5 v -20 h 4 v 20 h 20 v 4 h -20"
     id="path138"
     style="fill:#ffffff;fill-opacity:1;stroke:#000000;stroke-opacity:1" />
</svg>
